<?xml version="1.0" standalone="no"?>
<!DOCTYPE svg PUBLIC "-//W3C//DTD SVG 20010904//EN"
 "http://www.w3.org/TR/2001/REC-SVG-20010904/DTD/svg10.dtd">
<svg version="1.0" xmlns="http://www.w3.org/2000/svg"
 width="776.000000pt" height="776.000000pt" viewBox="0 0 776.000000 776.000000"
 preserveAspectRatio="xMidYMid meet">
<metadata>
Created by potrace 1.14, written by Peter Selinger 2001-2017
</metadata>
<g transform="translate(0.000000,776.000000) scale(0.100000,-0.100000)"
fill="#000000" stroke="none">
<path d="M3659 7756 c-2 -2 -41 -7 -86 -10 -45 -4 -90 -8 -100 -10 -10 -2 -45
-7 -78 -10 -33 -4 -67 -9 -75 -11 -8 -2 -31 -6 -50 -9 -28 -4 -164 -32 -250
-51 -67 -14 -265 -70 -355 -100 -60 -20 -114 -38 -120 -39 -5 -2 -21 -8 -35
-13 -14 -6 -67 -27 -118 -47 -136 -52 -267 -117 -253 -125 13 -8 -105 -68
-126 -63 -27 6 -416 -269 -584 -413 -19 -16 -62 -52 -94 -80 -73 -62 -261
-249 -335 -334 -30 -34 -64 -72 -75 -84 -11 -12 -45 -53 -75 -92 -30 -38 -60
-76 -67 -83 -7 -8 -27 -35 -45 -60 -18 -26 -37 -52 -43 -59 -28 -33 -35 -43
-35 -48 0 -3 -15 -26 -34 -52 -38 -55 -103 -160 -153 -248 -30 -53 -135 -262
-138 -275 -2 -8 -24 -63 -34 -85 -43 -96 -147 -440 -176 -582 -2 -10 -8 -38
-14 -63 -12 -53 -21 -97 -25 -125 -7 -41 -20 -120 -21 -125 -1 -3 -5 -36 -9
-75 -5 -38 -10 -79 -13 -90 -18 -86 -25 -649 -10 -765 9 -64 12 -90 23 -185 8
-70 10 -83 14 -87 1 -2 3 -14 4 -28 9 -81 89 -430 104 -455 4 -5 8 -19 9 -30
2 -11 7 -31 12 -45 15 -41 22 -65 20 -65 -1 0 6 -18 16 -40 9 -22 18 -47 20
-55 4 -20 53 -138 72 -172 8 -16 12 -28 9 -28 -4 0 33 -80 111 -235 19 -38 39
-77 44 -85 4 -8 27 -45 49 -83 22 -37 40 -69 40 -71 0 -9 93 -147 177 -264
182 -251 397 -483 627 -677 33 -27 68 -58 78 -67 10 -10 18 -15 18 -11 0 3 8
-4 19 -15 10 -12 23 -22 30 -22 6 0 11 -3 11 -7 0 -5 17 -19 37 -33 20 -14 41
-30 47 -35 6 -6 25 -20 43 -30 17 -11 70 -46 118 -78 47 -31 89 -57 92 -57 4
0 14 -6 22 -14 9 -7 41 -26 71 -42 30 -16 57 -32 60 -35 3 -3 29 -17 58 -30
28 -13 52 -27 52 -31 0 -5 6 -8 14 -8 8 0 31 -9 53 -20 70 -36 166 -80 174
-80 5 0 33 -11 63 -25 30 -14 58 -25 61 -25 4 0 21 -6 38 -14 18 -8 49 -20 71
-26 23 -8 34 -15 27 -20 -14 -8 13 -20 114 -49 81 -23 216 -57 260 -66 105
-20 193 -37 215 -39 57 -6 147 -18 170 -22 156 -25 738 -24 925 1 17 2 57 7
90 11 102 11 109 12 140 18 70 13 111 19 128 20 9 0 17 4 17 9 0 4 4 6 9 2 6
-3 29 -1 53 5 24 6 59 13 78 16 19 3 54 12 78 20 24 8 47 12 52 9 5 -3 11 -1
14 4 3 4 19 11 36 14 17 4 29 12 28 18 -2 6 11 16 27 21 61 20 201 71 235 86
19 8 40 16 45 17 36 8 342 158 445 218 150 87 307 190 351 229 10 10 22 18 25
18 5 0 81 56 94 70 3 3 25 21 50 40 121 93 355 318 462 444 33 39 65 76 72 81
6 6 45 55 86 110 41 55 77 102 80 105 20 20 210 315 210 326 0 3 8 18 19 32
26 37 116 215 113 225 -1 4 2 7 7 7 8 0 13 12 20 45 1 6 8 19 15 30 19 30 128
302 141 355 1 3 4 12 8 20 17 42 83 277 102 365 13 56 16 73 19 102 3 18 7 40
10 50 7 22 20 103 30 178 13 97 16 124 22 185 10 93 10 558 0 670 -11 123 -13
140 -33 265 -2 17 -6 44 -9 60 -2 17 -6 41 -9 55 -3 14 -10 45 -15 70 -15 77
-20 102 -45 195 -32 123 -62 222 -70 235 -3 5 -8 18 -10 28 -5 27 -74 209
-106 281 -34 74 -33 72 -14 65 13 -5 13 -1 -1 31 -8 20 -19 45 -23 54 -38 75
-54 106 -91 176 -24 44 -60 106 -81 139 -22 32 -39 62 -39 66 0 5 -3 10 -7 12
-5 2 -28 32 -53 68 -24 36 -48 70 -52 75 -17 22 -223 272 -244 295 -158 179
-341 361 -462 458 -65 53 -86 70 -102 85 -26 23 -199 147 -205 147 -4 0 -13 6
-20 13 -31 27 -44 37 -50 37 -4 0 -26 14 -50 30 -24 17 -48 30 -54 30 -6 0
-11 5 -11 10 0 6 -7 10 -15 10 -8 0 -15 5 -15 10 0 6 5 10 11 10 7 0 0 9 -14
20 -14 11 -28 20 -31 20 -3 0 -24 13 -48 29 -24 15 -70 43 -103 61 -33 18 -66
38 -74 44 -8 6 -16 10 -17 9 -2 -2 -37 12 -76 31 -137 63 -263 115 -290 120
-14 2 -37 10 -50 17 -12 7 -24 12 -25 11 -2 -1 -8 0 -15 2 -118 37 -316 89
-383 101 -32 5 -49 8 -130 25 -71 14 -168 27 -260 35 -33 3 -76 8 -95 11 -39
6 -586 15 -591 10z"/>
</g>
</svg>
